<svg width="71" height="70" viewBox="0 0 71 70" fill="none" xmlns="http://www.w3.org/2000/svg">
<mask id="mask0_164_2989" style="mask-type:luminance" maskUnits="userSpaceOnUse" x="0" y="0" width="71" height="70">
<path d="M70.8991 10.9816L11.1442 0L0 58.8835L59.7549 69.8651L70.8991 10.9816Z" fill="white"/>
</mask>
<g mask="url(#mask0_164_2989)">
<path d="M59.752 39.381C56.8946 54.479 42.6871 61.6748 29.7287 59.2934C16.7701 56.9119 7.72502 48.5002 10.5824 33.4021C13.44 18.3041 26.2759 7.98305 39.2341 10.3645C52.1924 12.746 62.6094 24.2829 59.752 39.381Z" fill="white" stroke="black" stroke-width="1.7675" stroke-linecap="round" stroke-linejoin="round"/>
<path d="M33.2992 18.2073C31.137 24.0979 24.4934 28.1645 20.7515 26.9061C17.0096 25.6477 16.2318 20.5736 17.7156 15.3435C19.1995 10.1135 23.8947 6.51035 28.1954 7.30077C32.4962 8.09119 35.4564 12.3299 33.2992 18.2073Z" fill="white" stroke="black" stroke-width="1.7675" stroke-linecap="round" stroke-linejoin="round"/>
<path d="M34.8838 17.2305C34.4606 24.1358 38.8445 29.6048 43.3447 29.7982C47.8449 29.9914 52.5953 25.6802 52.4351 19.7308C52.281 14.0136 50.0163 10.8812 45.2366 9.27093C40.6826 7.73679 35.306 10.3405 34.8838 17.2305Z" fill="white" stroke="black" stroke-width="1.7675" stroke-linecap="round" stroke-linejoin="round"/>
<path d="M43.3659 47.2732C42.0609 55.8042 37.1857 58.0543 29.9211 56.7193C19.7322 54.8466 15.74 50.9669 17.0452 42.4359C18.3502 33.905 23.8161 27.7911 31.0807 29.1262C38.3452 30.4613 44.6709 38.7423 43.3659 47.2732Z" fill="black"/>
<path d="M42.5497 19.8944C42.5263 20.0219 42.4764 20.1434 42.4029 20.252C42.3293 20.3604 42.2333 20.4538 42.1207 20.5266C42.0079 20.5995 41.8807 20.6504 41.7463 20.6762C41.6119 20.7023 41.4729 20.7027 41.3374 20.6779C41.2018 20.6529 41.0723 20.6031 40.9564 20.5311C40.8407 20.4592 40.7405 20.3665 40.662 20.2585C40.5836 20.1507 40.5282 20.0294 40.4993 19.9021C40.4702 19.7747 40.4681 19.6436 40.4933 19.5164C40.5165 19.3889 40.5664 19.2674 40.6399 19.1588C40.7135 19.0502 40.8095 18.957 40.9221 18.884C41.0349 18.8113 41.1621 18.7604 41.2965 18.7346C41.4309 18.7085 41.5699 18.7081 41.7054 18.7329C41.841 18.7579 41.9705 18.8077 42.0864 18.8797C42.2024 18.9516 42.3023 19.0441 42.3808 19.1521C42.4592 19.2601 42.5146 19.3812 42.5435 19.5085C42.5726 19.6359 42.5747 19.767 42.5497 19.8944Z" stroke="black" stroke-width="1.7675" stroke-linecap="round" stroke-linejoin="round"/>
<path d="M28.2532 17.6277C28.2299 17.7553 28.1801 17.8768 28.1063 17.9854C28.0328 18.0938 27.9368 18.1872 27.8242 18.26C27.7116 18.3329 27.5844 18.3838 27.45 18.4096C27.3155 18.4357 27.1766 18.4361 27.0409 18.4113C26.9054 18.3863 26.776 18.3365 26.66 18.2645C26.5441 18.1924 26.444 18.0999 26.3656 17.9919C26.2871 17.8841 26.2318 17.7628 26.2027 17.6355C26.1739 17.5081 26.1718 17.377 26.1967 17.2498C26.22 17.1223 26.2699 17.0008 26.3436 16.8922C26.4172 16.7836 26.5129 16.6904 26.6258 16.6174C26.7384 16.5447 26.8655 16.4938 27 16.468C27.1344 16.4419 27.2734 16.4415 27.409 16.4663C27.5445 16.4913 27.6739 16.5411 27.7899 16.613C27.9058 16.685 28.006 16.7775 28.0843 16.8855C28.1628 16.9935 28.2181 17.1146 28.2472 17.2419C28.2761 17.3693 28.2781 17.5004 28.2532 17.6277Z" stroke="black" stroke-width="1.7675" stroke-linecap="round" stroke-linejoin="round"/>
</g>
</svg>
