<svg width="379" height="330" viewBox="0 0 379 330" fill="none" xmlns="http://www.w3.org/2000/svg">
<g clip-path="url(#clip0_164_256)">
<g clip-path="url(#clip1_164_256)">
<g clip-path="url(#clip2_164_256)">
<path d="M550.363 321C592.696 295 673.763 225.4 659.363 155C641.363 67 151.863 303.5 222.863 219C281.045 149.755 314.5 110 400.863 20C358.15 65 106 191.5 17.5 -15" stroke="white" stroke-width="15" stroke-linecap="round"/>
<path d="M540.363 322C582.696 296 663.763 226.4 649.363 156C631.363 68 141.863 304.5 212.863 220C271.045 150.755 304.5 111 390.863 21C348.15 66 96 192.5 7.5 -14" stroke="#FF8D6F" stroke-width="15" stroke-linecap="round"/>
<path d="M234.609 265.754L204.609 235.754L174.609 205.754" stroke="white" stroke-width="2.39995" stroke-linecap="round"/>
<path d="M173.987 209.538L173.988 209.538C175.908 210.053 177.882 208.913 178.397 206.993C178.911 205.072 177.772 203.098 175.851 202.584L175.851 202.584C173.931 202.069 171.957 203.209 171.442 205.129C170.927 207.05 172.067 209.023 173.987 209.538Z" fill="white" stroke="white" stroke-width="2.39995"/>
<path d="M205.122 239.616L205.122 239.616C207.043 240.131 209.017 238.991 209.531 237.071C210.046 235.15 208.906 233.176 206.986 232.662L206.986 232.662C205.065 232.147 203.091 233.287 202.577 235.207C202.062 237.128 203.202 239.102 205.122 239.616Z" fill="white" stroke="white" stroke-width="2.39995"/>
<path d="M233.987 269.538L233.988 269.538C235.908 270.053 237.882 268.913 238.397 266.993C238.911 265.072 237.772 263.098 235.851 262.584L235.851 262.584C233.931 262.069 231.957 263.209 231.442 265.129C230.927 267.05 232.067 269.023 233.987 269.538Z" fill="white" stroke="white" stroke-width="2.39995"/>
<path d="M203.648 176.168C204.29 175.198 203.417 173.945 202.285 174.212L197.339 175.387C196.995 175.468 196.63 175.406 196.333 175.208L192.099 172.394C191.13 171.751 189.876 172.625 190.143 173.757L191.319 178.703C191.4 179.047 191.337 179.412 191.139 179.708L188.325 183.943C187.683 184.912 188.557 186.166 189.688 185.898L194.635 184.723C194.979 184.642 195.343 184.704 195.64 184.903L199.874 187.717C200.844 188.359 202.097 187.485 201.83 186.353L200.655 181.407C200.573 181.063 200.636 180.698 200.834 180.402L203.648 176.168Z" fill="white"/>
</g>
</g>
</g>
<defs>
<clipPath id="clip0_164_256">
<rect width="379" height="330" fill="white"/>
</clipPath>
<clipPath id="clip1_164_256">
<rect width="379" height="330" fill="white"/>
</clipPath>
<clipPath id="clip2_164_256">
<rect width="379" height="330" fill="white"/>
</clipPath>
</defs>
</svg>
