<svg width="303" height="283" viewBox="0 0 303 283" fill="none" xmlns="http://www.w3.org/2000/svg">
<g clip-path="url(#clip0_164_245)">
<g clip-path="url(#clip1_164_245)">
<g clip-path="url(#clip2_164_245)">
<path d="M-39.0153 309.496C-39.0153 309.496 -98.5689 59.175 -63.6875 107.204C-28.8062 155.234 45.5289 252.907 78.2986 229.662C151.319 177.867 24.177 -50.9521 83.6257 59.7032C131.185 148.227 242.046 172.223 284.824 128.258" stroke="white" stroke-width="15" stroke-linecap="round"/>
<path d="M-30.9996 310.499C-30.9996 310.499 -90.5532 60.1789 -55.6719 108.208C-20.7906 156.238 53.5445 253.911 86.3142 230.666C159.334 178.871 32.1926 -49.9482 91.6414 60.7071C139.201 149.231 250.062 173.227 292.839 129.262" stroke="#FF8D6F" stroke-width="15" stroke-linecap="round"/>
<path d="M291.975 130.226L235.9 181.176" stroke="white" stroke-width="2" stroke-linecap="round"/>
<path d="M234.602 182.351C235.717 183.577 237.614 183.668 238.84 182.554C240.066 181.439 240.157 179.542 239.043 178.316C237.929 177.089 236.032 176.999 234.805 178.113C233.579 179.227 233.488 181.124 234.602 182.351Z" fill="white" stroke="white" stroke-width="2"/>
<path d="M290.54 132.219C291.654 133.445 293.551 133.536 294.778 132.421C296.004 131.307 296.095 129.41 294.981 128.184C293.866 126.957 291.969 126.867 290.743 127.981C289.517 129.095 289.426 130.992 290.54 132.219Z" fill="white" stroke="white" stroke-width="2"/>
<path d="M293.775 194.903C294.265 196.367 292.714 197.674 291.355 196.942L285.416 193.736C285.003 193.513 284.513 193.468 284.065 193.621L277.668 195.774C276.205 196.265 274.897 194.713 275.629 193.354L278.835 187.415C279.058 187.002 279.103 186.513 278.951 186.064L276.797 179.668C276.307 178.204 277.858 176.897 279.217 177.628L285.156 180.835C285.569 181.057 286.058 181.103 286.507 180.95L292.903 178.797C294.367 178.306 295.674 179.857 294.943 181.217L291.736 187.156C291.514 187.569 291.469 188.058 291.621 188.506L293.775 194.903Z" fill="white"/>
<path d="M257.551 110.461C256.979 111.231 255.761 110.905 255.651 109.951L255.174 105.782C255.141 105.492 254.99 105.226 254.753 105.052L251.38 102.555C250.609 101.983 250.936 100.764 251.889 100.654L256.059 100.178C256.349 100.144 256.614 99.9937 256.789 99.7564L259.286 96.3834C259.858 95.6128 261.077 95.9393 261.187 96.8928L261.663 101.062C261.696 101.352 261.847 101.618 262.085 101.792L265.458 104.289C266.228 104.862 265.902 106.08 264.948 106.19L260.779 106.666C260.489 106.7 260.223 106.851 260.049 107.088L257.551 110.461Z" fill="white"/>
<path d="M212.784 184.013C212.924 184.963 211.832 185.593 211.08 184.997L207.795 182.385C207.566 182.204 207.272 182.123 206.98 182.167L202.83 182.786C201.88 182.927 201.249 181.834 201.846 181.082L204.457 177.797C204.639 177.569 204.72 177.274 204.676 176.983L204.056 172.832C203.916 171.883 205.008 171.252 205.761 171.848L209.046 174.46C209.274 174.641 209.569 174.722 209.86 174.678L214.011 174.059C214.96 173.918 215.591 175.011 214.995 175.763L212.383 179.048C212.202 179.276 212.12 179.571 212.165 179.862L212.784 184.013Z" fill="white"/>
</g>
</g>
</g>
<defs>
<clipPath id="clip0_164_245">
<rect width="303" height="283" fill="white"/>
</clipPath>
<clipPath id="clip1_164_245">
<rect width="303" height="283" fill="white"/>
</clipPath>
<clipPath id="clip2_164_245">
<rect width="303" height="283" fill="white"/>
</clipPath>
</defs>
</svg>
